<?xml version="1.0" encoding="utf-8"?>
<svg viewBox="0 0 418.022 195.87" xmlns="http://www.w3.org/2000/svg">
  <g fill="none" fill-rule="none" stroke="none" stroke-width="1" stroke-linecap="butt" stroke-linejoin="miter" stroke-miterlimit="10" stroke-dasharray="" stroke-dashoffset="0" font-family="none" font-weight="none" font-size="none" text-anchor="none" style="mix-blend-mode: normal" transform="matrix(1, 0, 0, 1, -69.117668, -143.747391)">
    <g data-paper-data="{&quot;isGlobalGroup&quot;:true,&quot;bounds&quot;:{&quot;x&quot;:83.40022588019234,&quot;y&quot;:166.27683382964344,&quot;width&quot;:383.19954823961524,&quot;height&quot;:137.44594629931967}}">
      <g data-paper-data="{&quot;stacked&quot;:true,&quot;isPrimaryText&quot;:true}" fill-rule="nonzero">
        <path d="M229.91774,202.30491c0.29321,0 0.6283,0.02094 1.00529,0.06283c1.25661,0.08377 2.72265,-0.01047 4.39813,-0.28274c1.67548,-0.27226 3.25671,-0.8901 4.74369,-1.8535c1.48699,-0.9634 2.58652,-2.47133 3.29859,-4.52379c0.29321,-0.9634 0.41887,-2.19906 0.37698,-3.70699c-0.08377,-2.80642 -0.77491,-5.00549 -2.0734,-6.59719c-1.29849,-1.5917 -3.12058,-2.38755 -5.46624,-2.38755h-6.28304zM229.91774,204.5668v15.33061c0.04189,1.00529 0.36651,1.81161 0.97387,2.41897c0.60736,0.60736 1.30897,0.91104 2.10482,0.91104h1.75925v1.88491h-15.64476v-1.88491h1.75925c0.75396,0 1.4451,-0.30368 2.0734,-0.91104c0.6283,-0.60736 0.9634,-1.41368 1.00529,-2.41897v-35.12218c-0.12566,-0.92151 -0.4817,-1.65453 -1.06812,-2.19906c-0.58642,-0.54453 -1.25661,-0.81679 -2.01057,-0.81679h-1.69642l0.87963,-1.88491h16.39873c4.31435,0 7.70719,1.15189 10.17852,3.45567c2.47133,2.30378 3.70699,5.40341 3.70699,9.2989c0,2.47133 -0.72255,4.65992 -2.16765,6.56577c-1.4451,1.90585 -3.28812,3.41378 -5.52907,4.52379c-2.24095,1.11 -4.61803,1.70689 -7.13125,1.79067c-1.88491,0.04189 -3.74888,-0.27226 -5.5919,-0.94246z" data-paper-data="{&quot;glyphName&quot;:&quot;P&quot;,&quot;glyphIndex&quot;:0,&quot;firstGlyphOfWord&quot;:true,&quot;word&quot;:1,&quot;line&quot;:1,&quot;firstGlyphOfFirstLine&quot;:true}" fill="#97999b"/>
        <path d="M277.606,179.87447v0c6.99512,0 12.66032,2.09435 16.99562,6.28304c4.3353,4.18869 6.50294,9.63399 6.50294,16.3359c0,6.70191 -2.16765,12.14721 -6.50294,16.3359c-4.3353,4.18869 -10.0005,6.28304 -16.99562,6.28304h-22.24195v-1.88491h1.75925c0.75396,0 1.4451,-0.30368 2.0734,-0.91104c0.6283,-0.60736 0.9634,-1.41368 1.00529,-2.41897v-35.18501c0,-0.87963 -0.32462,-1.5917 -0.97387,-2.13623c-0.64925,-0.54453 -1.35085,-0.81679 -2.10482,-0.81679h-1.69642l-0.06283,-1.88491zM277.606,221.97082v0c5.02643,0 9.09993,-1.75925 12.22051,-5.27775c3.12058,-3.5185 4.68086,-8.25172 4.68086,-14.19967c0,-5.90606 -1.57076,-10.62881 -4.71228,-14.16825c-3.14152,-3.53944 -7.20455,-5.30917 -12.18909,-5.30917h-11.43513v38.95483z" data-paper-data="{&quot;glyphName&quot;:&quot;D&quot;,&quot;glyphIndex&quot;:1,&quot;word&quot;:1,&quot;line&quot;:1}" fill="#97999b"/>
        <path d="M332.95956,179.87447h0.94246v1.31944v1.06812v4.83794l-2.51322,-0.06283v-1.50793c0,-0.75396 -0.21991,-1.35085 -0.65972,-1.79067c-0.43981,-0.43981 -0.93198,-0.65972 -1.47651,-0.65972h-12.31475v18.15798h9.61305c0.54453,-0.04189 1.0367,-0.28274 1.47651,-0.72255c0.43981,-0.43981 0.65972,-1.0367 0.65972,-1.79067v-1.50793l2.51322,-0.06283v11.24664h-2.51322v-1.57076c0,-0.71208 -0.20943,-1.28802 -0.6283,-1.72784c-0.41887,-0.43981 -0.90057,-0.68066 -1.4451,-0.72255h-9.67588v15.5191c0.04189,1.00529 0.36651,1.81161 0.97387,2.41897c0.60736,0.60736 1.30897,0.91104 2.10482,0.91104h1.69642l0.06283,1.88491h-15.64476v-1.88491h1.75925c0.75396,0 1.4451,-0.30368 2.0734,-0.91104c0.6283,-0.60736 0.9634,-1.41368 1.00529,-2.41897v-35.18501c0,-0.87963 -0.32462,-1.5917 -0.97387,-2.13623c-0.64925,-0.54453 -1.35085,-0.81679 -2.10482,-0.81679h-1.69642l-0.06283,-1.88491h19.28893c0.87963,0 1.58123,0 2.10482,0c0.52359,0 1.17283,0 1.94774,0c0.77491,0 1.93727,0 3.48709,0z" data-paper-data="{&quot;glyphName&quot;:&quot;F&quot;,&quot;glyphIndex&quot;:2,&quot;lastGlyphOfWord&quot;:true,&quot;word&quot;:1,&quot;line&quot;:1,&quot;lastGlyphOfFirstLine&quot;:true}" fill="#97999b"/>
        <path d="M227.59302,243.88238v0h21.23667c0.87963,0 1.58123,0 2.10482,0c0.52359,0 1.16236,0 1.91633,0c0.75396,0 2.19906,-0.02094 4.3353,-0.06283l0.18849,8.10512l-2.51322,-0.06283v-1.69642c0,-0.92151 -0.27226,-1.665 -0.81679,-2.23048c-0.54453,-0.56547 -1.17283,-0.86915 -1.88491,-0.91104h-10.93249v37.00709c0.04189,1.00529 0.37698,1.80114 1.00529,2.38755c0.6283,0.58642 1.31944,0.87963 2.0734,0.87963h1.69642l0.06283,1.88491h-15.64476v-1.88491h1.75925c0.75396,0 1.43463,-0.29321 2.04199,-0.87963c0.60736,-0.58642 0.95293,-1.36132 1.0367,-2.32472v-37.06992h-10.93249c-0.71208,0.04189 -1.34038,0.34557 -1.88491,0.91104c-0.54453,0.56547 -0.81679,1.30897 -0.81679,2.23048v1.69642l-2.51322,0.06283v-8.10512c2.47133,0.04189 4.11539,0.06283 4.93218,0.06283c0.81679,0 1.35085,0 1.60217,0c0.20943,0 0.37698,0 0.50264,0c0.12566,0 0.29321,0 0.50264,0c0.20943,0 0.52359,0 0.94246,0z" data-paper-data="{&quot;glyphName&quot;:&quot;T&quot;,&quot;glyphIndex&quot;:3,&quot;firstGlyphOfWord&quot;:true,&quot;word&quot;:2,&quot;line&quot;:2,&quot;firstGlyphOfSecondLine&quot;:true}" fill="#c1c6c8"/>
        <path d="M285.89961,242.81426v0c7.037,0 12.72315,2.17812 17.05845,6.53436c4.3353,4.35624 6.50294,10.01097 6.50294,16.9642c0,6.95323 -2.16765,12.60796 -6.50294,16.9642c-4.3353,4.35624 -10.02145,6.53436 -17.05845,6.53436c-6.99512,0 -12.66032,-2.17812 -16.99562,-6.53436c-4.3353,-4.35624 -6.50294,-10.01097 -6.50294,-16.9642c0,-6.95323 2.16765,-12.60796 6.50294,-16.9642c4.3353,-4.35624 10.0005,-6.53436 16.99562,-6.53436zM285.89961,286.66986v0c4.98454,0 9.0371,-1.84302 12.15768,-5.52907c3.12058,-3.68605 4.68086,-8.62871 4.68086,-14.82797c0,-6.19926 -1.56029,-11.14192 -4.68086,-14.82797c-3.12058,-3.68605 -7.17313,-5.52907 -12.15768,-5.52907c-4.94266,0 -8.97427,1.84302 -12.09485,5.52907c-3.12058,3.68605 -4.68086,8.62871 -4.68086,14.82797c0,6.19926 1.56029,11.14192 4.68086,14.82797c3.12058,3.68605 7.15219,5.52907 12.09485,5.52907z" data-paper-data="{&quot;glyphName&quot;:&quot;O&quot;,&quot;glyphIndex&quot;:4,&quot;lastGlyphOfWord&quot;:true,&quot;word&quot;:2,&quot;line&quot;:2}" fill="#c1c6c8"/>
        <path d="M345.39998,258.2077l12.50325,11.56079c1.29849,1.21472 2.17812,2.52369 2.63888,3.9269c0.46076,1.40321 0.69113,2.75406 0.69113,4.05256c0,3.60227 -1.14142,6.56577 -3.42426,8.8905c-2.28284,2.32472 -5.39294,3.48709 -9.33031,3.48709c-1.63359,0 -3.57086,-0.27226 -5.81181,-0.81679c-2.24095,-0.54453 -4.13633,-1.54982 -5.68615,-3.01586c-0.08377,-0.29321 -0.1466,-0.56547 -0.18849,-0.81679c-0.3351,-1.13095 -0.6283,-2.4818 -0.87963,-4.05256c-0.25132,-1.57076 -0.12566,-3.21482 0.37698,-4.93218h2.32472c-0.20943,3.56039 0.68066,6.22021 2.67029,7.97946c1.98963,1.75925 4.28294,2.59699 6.87993,2.51322c2.05246,-0.12566 3.82218,-0.85868 5.30917,-2.19906c1.48699,-1.34038 2.23048,-3.20435 2.23048,-5.5919c0,-2.34567 -0.75396,-4.16775 -2.26189,-5.46624l-12.06343,-11.24664c-1.34038,-1.25661 -2.27237,-2.60746 -2.79595,-4.05256c-0.52359,-1.4451 -0.78538,-2.79595 -0.78538,-4.05256c0,-1.84302 0.43981,-3.61275 1.31944,-5.30917c0.87963,-1.69642 2.22001,-3.1101 4.02114,-4.24105c1.80114,-1.13095 4.0002,-1.69642 6.59719,-1.69642c0.87963,0 2.12576,0.09425 3.73841,0.28274c1.61265,0.18849 2.85878,0.36651 3.73841,0.53406h3.26718v1.38227v7.60248h-2.45038c-0.12566,-2.30378 -1.08906,-4.08397 -2.8902,-5.34058c-1.80114,-1.25661 -3.56039,-1.88491 -5.27775,-1.88491c-1.9268,0 -3.5185,0.74349 -4.77511,2.23048c-1.25661,1.48699 -1.88491,3.13105 -1.88491,4.93218c0,0.79585 0.16755,1.68595 0.50264,2.67029c0.3351,0.98434 0.90057,1.87444 1.69642,2.67029z" data-paper-data="{&quot;glyphName&quot;:&quot;S&quot;,&quot;glyphIndex&quot;:5,&quot;firstGlyphOfWord&quot;:true,&quot;word&quot;:2,&quot;line&quot;:2}" fill="#c1c6c8"/>
        <path d="M401.44467,244.00804h0.94246h13.57136v1.88491h-1.50793c-0.71208,0 -1.49746,0.26179 -2.35614,0.78538c-0.85868,0.52359 -1.60217,1.39274 -2.23048,2.60746c-10.09475,22.66082 -15.24684,34.24256 -15.45627,34.7452c-0.20943,0.50264 -0.47123,1.12048 -0.78538,1.8535c-0.31415,0.73302 -0.58642,1.4451 -0.81679,2.13623c-0.23038,0.69113 -0.34557,1.39274 -0.34557,2.10482h-2.19906l-17.84383,-40.77691c-0.6283,-1.25661 -1.3718,-2.1467 -2.23048,-2.67029c-0.85868,-0.52359 -1.665,-0.78538 -2.41897,-0.78538h-1.4451v-1.88491h16.02175v1.88491h-1.50793c-0.46076,0 -0.90057,0.25132 -1.31944,0.75396c-0.41887,0.50264 -0.46076,1.29849 -0.12566,2.38755l12.56608,31.47802l13.32004,-30.66122c0.3351,-1.13095 0.1466,-2.0734 -0.56547,-2.82737c-0.71208,-0.75396 -1.29849,-1.13095 -1.75925,-1.13095h-1.50793z" data-paper-data="{&quot;glyphName&quot;:&quot;V&quot;,&quot;glyphIndex&quot;:6,&quot;word&quot;:2,&quot;line&quot;:2}" fill="#c1c6c8"/>
        <path d="M466.59977,267.31811v1.25661h-0.94246c-1.38227,0 -2.11529,0.73302 -2.19906,2.19906v10.49267c-1.04717,1.42416 -2.41897,2.77501 -4.11539,4.05256c-1.69642,1.27755 -3.79077,2.34567 -6.28304,3.20435c-2.49227,0.85868 -5.372,1.28802 -8.63918,1.28802c-7.07889,-0.12566 -12.75457,-2.32472 -17.02703,-6.59719c-4.27247,-4.27247 -6.4087,-9.88531 -6.4087,-16.83854c0,-6.95323 2.15718,-12.58702 6.47153,-16.90137c4.31435,-4.31435 9.96909,-6.47153 16.9642,-6.47153c3.56039,0 6.61813,0.41887 9.17324,1.25661c2.5551,0.83774 4.87983,1.94774 6.97417,3.33001l-0.31415,9.80154h-2.19906c-1.00529,-3.8536 -2.56557,-6.70191 -4.68086,-8.54493c-2.11529,-1.84302 -5.09973,-2.76454 -8.95333,-2.76454c-4.94266,0 -8.98474,1.84302 -12.12626,5.52907c-3.14152,3.68605 -4.71228,8.60776 -4.71228,14.76514c0,6.15738 1.54982,11.05815 4.64945,14.70231c3.09963,3.64416 7.16266,5.50813 12.18909,5.5919c5.15209,0 9.55022,-1.65453 13.19438,-4.9636v-10.93249c0,-1.42416 -0.77491,-2.15718 -2.32472,-2.19906h-1.88491v-1.88491h13.19438z" data-paper-data="{&quot;glyphName&quot;:&quot;G&quot;,&quot;glyphIndex&quot;:7,&quot;lastGlyphOfWord&quot;:true,&quot;word&quot;:2,&quot;line&quot;:2,&quot;lastGlyphOfSecondLine&quot;:true}" fill="#c1c6c8"/>
      </g>
      <g data-paper-data="{&quot;isIcon&quot;:&quot;true&quot;,&quot;iconType&quot;:&quot;icon&quot;,&quot;rawIconId&quot;:&quot;197667&quot;,&quot;selectedEffects&quot;:{&quot;container&quot;:&quot;&quot;,&quot;transformation&quot;:&quot;&quot;,&quot;pattern&quot;:&quot;&quot;},&quot;combineTerms&quot;:&quot;Svg&quot;,&quot;isDetailed&quot;:false,&quot;fillRule&quot;:&quot;evenodd&quot;,&quot;bounds&quot;:{&quot;x&quot;:83.40022588019234,&quot;y&quot;:166.27683382964344,&quot;width&quot;:109.72975712814547,&quot;height&quot;:137.44594629931967},&quot;iconStyle&quot;:&quot;standalone&quot;,&quot;suitableAsStandaloneIcon&quot;:true}" fill-rule="evenodd">
        <g data-paper-data="{&quot;isPathIcon&quot;:true}">
          <path d="M182.30899,166.27683c5.967,0 10.821,4.854 10.821,10.823v115.80195c0,5.967 -4.854,10.821 -10.821,10.821h-88.08947c-5.9651,0 -10.8193,-4.854 -10.8193,-10.821v-115.80395c0,-5.967 4.8542,-10.821 10.8193,-10.821zM94.21952,172.73083c-2.4066,0 -4.3664,1.96 -4.3664,4.369v115.80195c0,2.407 1.9598,4.367 4.3664,4.367h88.08947c2.407,0 4.366,-1.96 4.366,-4.367v-115.80195c0,-2.409 -1.959,-4.369 -4.366,-4.369z" fill="#97999b"/>
          <path d="M110.23002,213.34982c1.645,0 2.978,-0.383 4.007,-1.148c1.027,-0.765 1.541,-1.719 1.544,-2.867c0,-0.909 -0.277,-1.647 -0.83,-2.213c-0.555,-0.567 -1.27,-1 -2.15,-1.298c-0.876,-0.299 -2.052,-0.619 -3.521,-0.953c-1.966,-0.461 -3.613,-0.998 -4.94,-1.616c-1.326,-0.618 -2.379,-1.457 -3.158,-2.523c-0.777,-1.063 -1.167,-2.386 -1.167,-3.967c0,-1.507 0.413,-2.847 1.234,-4.016c0.822,-1.169 2.01,-2.071 3.567,-2.699c1.556,-0.628 3.388,-0.943 5.491,-0.943c1.681,0 3.134,0.208 4.361,0.624c1.228,0.418 2.243,0.973 3.054,1.664c0.81,0.692 1.4,1.417 1.773,2.176c0.375,0.761 0.562,1.501 0.562,2.223c0,0.661 -0.233,1.253 -0.7,1.784c-0.468,0.53 -1.051,0.794 -1.748,0.794c-0.635,0 -1.118,-0.159 -1.448,-0.476c-0.33,-0.317 -0.688,-0.837 -1.073,-1.559c-0.498,-1.032 -1.097,-1.84 -1.794,-2.419c-0.697,-0.578 -1.819,-0.869 -3.362,-0.869c-1.432,0 -2.586,0.316 -3.466,0.944c-0.876,0.629 -1.316,1.383 -1.316,2.268c0,0.548 0.149,1.022 0.448,1.419c0.3,0.401 0.711,0.743 1.235,1.029c0.523,0.288 1.052,0.512 1.586,0.673c0.538,0.164 1.421,0.398 2.653,0.71c1.544,0.361 2.943,0.76 4.194,1.195c1.249,0.436 2.314,0.967 3.192,1.588c0.878,0.623 1.563,1.41 2.056,2.362c0.491,0.954 0.737,2.121 0.737,3.502c0,1.657 -0.426,3.144 -1.278,4.464c-0.854,1.322 -2.102,2.355 -3.745,3.102c-1.643,0.746 -3.593,1.119 -5.846,1.119c-2.702,0 -4.931,-0.51 -6.685,-1.532c-1.246,-0.734 -2.258,-1.715 -3.035,-2.942c-0.7787,-1.227 -1.1672,-2.419 -1.1672,-3.578c0,-0.672 0.2327,-1.247 0.6982,-1.727c0.467,-0.479 1.063,-0.718 1.785,-0.718c0.586,0 1.08,0.184 1.484,0.559c0.404,0.375 0.748,0.928 1.036,1.662c0.347,0.871 0.726,1.601 1.13,2.186c0.404,0.585 0.973,1.066 1.708,1.448c0.734,0.38 1.699,0.568 2.894,0.568z" fill="#c1c6c8"/>
          <path d="M124.87201,194.50682c-0.11,-0.325 -0.226,-0.642 -0.345,-0.953c-0.118,-0.312 -0.217,-0.647 -0.299,-1.009c-0.082,-0.361 -0.122,-0.665 -0.122,-0.915c0,-0.635 0.255,-1.214 0.766,-1.738c0.511,-0.523 1.153,-0.784 1.925,-0.784c0.947,0 1.616,0.29 2.008,0.868c0.392,0.58 0.794,1.505 1.205,2.775l6.193,18.36199l6.22,-18.49099c0.325,-0.974 0.566,-1.648 0.729,-2.028c0.161,-0.38 0.429,-0.722 0.803,-1.029c0.374,-0.304 0.885,-0.457 1.532,-0.457c0.475,0 0.914,0.118 1.317,0.355c0.406,0.238 0.723,0.551 0.954,0.943c0.231,0.392 0.346,0.787 0.346,1.186c0,0.276 -0.036,0.57 -0.112,0.888c-0.075,0.319 -0.167,0.628 -0.28,0.933c-0.11,0.307 -0.225,0.621 -0.336,0.943l-6.631,17.89399c-0.236,0.686 -0.472,1.337 -0.708,1.953c-0.237,0.616 -0.51,1.157 -0.822,1.624c-0.311,0.467 -0.726,0.851 -1.243,1.149c-0.515,0.299 -1.148,0.448 -1.894,0.448c-0.747,0 -1.38,-0.145 -1.895,-0.438c-0.515,-0.293 -0.935,-0.68 -1.251,-1.159c-0.317,-0.479 -0.594,-1.025 -0.83,-1.633c-0.237,-0.613 -0.473,-1.26 -0.711,-1.944z" fill="#c1c6c8"/>
          <path d="M158.866,216.44981c-1.73,-0.645 -3.206,-1.585 -4.426,-2.819c-1.22,-1.231 -2.158,-2.725 -2.814,-4.483c-0.655,-1.756 -0.982,-3.716 -0.982,-5.883c0,-2.129 0.32,-4.078 0.953,-5.847c0.635,-1.766 1.57,-3.267 2.802,-4.501c1.234,-1.231 2.735,-2.174 4.503,-2.83c1.77,-0.653 3.773,-0.979 6.015,-0.979c1.842,0 3.471,0.247 4.892,0.738c1.42067,0.49133 2.57267,1.111 3.456,1.859c0.885,0.748 1.55,1.539 1.999,2.372c0.448,0.834 0.673,1.577 0.673,2.224c0,0.696 -0.257,1.292 -0.776,1.783c-0.517,0.491 -1.136,0.738 -1.859,0.738c-0.397,0 -0.78,-0.094 -1.146,-0.279c-0.368,-0.187 -0.677,-0.449 -0.926,-0.786c-0.687,-1.069 -1.265,-1.877 -1.738,-2.427c-0.472,-0.549 -1.111,-1.01 -1.913,-1.383c-0.805,-0.375 -1.828,-0.56 -3.073,-0.56c-1.283,0 -2.429,0.221 -3.437,0.663c-1.01,0.443 -1.872,1.082 -2.588,1.924c-0.715,0.842 -1.263,1.872 -1.643,3.091c-0.38,1.222 -0.57,2.573 -0.57,4.053c0,3.213 0.74,5.684 2.213,7.415c1.476,1.732 3.533,2.597 6.172,2.597c1.282,0 2.487,-0.168 3.614,-0.504c1.128,-0.335 2.269,-0.816 3.428,-1.439v-4.445h-4.296c-1.034,0 -1.814,-0.154 -2.343,-0.466c-0.533,-0.311 -0.796,-0.84 -0.796,-1.588c0,-0.611 0.221,-1.116 0.664,-1.513c0.443,-0.401 1.044,-0.599 1.804,-0.599h6.294c0.773,0 1.425,0.068 1.961,0.205c0.536,0.137 0.969,0.442 1.299,0.916c0.329,0.472 0.495,1.181 0.495,2.129v5.246c0,0.698 -0.068,1.256 -0.205,1.672c-0.137,0.418 -0.389,0.795 -0.755,1.13c-0.368,0.336 -0.839,0.659 -1.411,0.971c-1.657,0.897 -3.248,1.55 -4.78,1.961c-1.534,0.411 -3.201,0.615 -5.009,0.615c-2.101,0 -4.02,-0.322 -5.751,-0.971z" fill="#c1c6c8"/>
          <path d="M182.30899,234.04881h-88.08947v6.455h88.08947z" fill="#c1c6c8"/>
          <path d="M182.30899,246.5778h-88.08947v6.455h88.08947z" fill="#c1c6c8"/>
          <path d="M182.30899,259.1078h-88.08947v6.452h88.08947z" fill="#c1c6c8"/>
          <path d="M182.30899,271.63779h-88.08947v6.453h88.08947z" fill="#c1c6c8"/>
          <path d="M94.21952,284.16379h88.08947v6.455h-88.08947z" fill="#c1c6c8"/>
        </g>
      </g>
    </g>
  </g>
</svg>